<?xml version="1.0" encoding="UTF-8"?>
<svg width="680" height="680" version="1.1" viewBox="0 0 680 680" xml:space="preserve" xmlns="http://www.w3.org/2000/svg" xmlns:cc="http://creativecommons.org/ns#" xmlns:dc="http://purl.org/dc/elements/1.1/" xmlns:rdf="http://www.w3.org/1999/02/22-rdf-syntax-ns#"><metadata><rdf:RDF><cc:Work rdf:about=""><dc:format>image/svg+xml</dc:format><dc:type rdf:resource="http://purl.org/dc/dcmitype/StillImage"/><dc:title/></cc:Work></rdf:RDF></metadata><g><g transform="matrix(.057384 0 0 -.057384 -235.02 900.69)"><path d="m5600 8007.7c-30.33 0-55 24.7-55 55 0 91.7 29.22 176.8 78.83 246.3 20.35-78.8 31.17-161.3 31.17-246.3 0-30.3-24.67-55-55-55zm9488.7 1760h-350.2c-216 523.4-584.9 995.3-1080.2 1383 139.9 82.9 270.4 155.8 390 218 151.8 78.9 227.6 238.7 188.6 397.5-40.7 165.8-195.8 281.5-377.4 281.5h-0.9c-593-1.3-1102.1-64.2-1514.6-187.1-562.5 197.2-1162.3 297.1-1784 297.1-1164.8 0-2262-355.1-3089.3-1e3 -407.11-317.4-727.36-688-951.85-1101.8-201.72-371.7-317.93-763.8-346.71-1168.2h-202.17c-59.89 0-118.28-6.4-174.58-18.6-251.59 350.1-662.33 578.6-1125.4 578.6h-175c-110.46 0-200-89.5-200-200s89.54-200 200-200h175c306.37 0 580.5-140.6 761.3-360.6-175.22-151.4-286.3-375.2-286.3-624.4 0-250.9 204.11-455 455-455s455 204.1 455 455c0 148.2-23.4 291-66.69 425h184.06c24.05-335.7 108.48-664.4 252.37-979.5 153.69-336.7 371.5-650.7 648.1-934.8l-56.08-1471.1c-26.31-119-3.82-244 63.23-346.8 72.06-110.5 188.34-184.3 319.03-202.4l457.01-63.2c230.4-31.8 464.58 20.6 659.41 147.6 189.5 123.6 329.4 309.7 395.57 525.7l131.23 266.5c224.93-65.1 457.09-115.8 692.37-151 109.3-16.4 211.06 58.9 227.42 168.2 16.35 109.2-58.95 211-168.19 227.4-271.72 40.7-538.7 103.5-793.54 186.9-94.66 31-197.64-12.4-241.61-101.8l-214.05-434.8c-5.3-10.8-9.62-22-12.91-33.5-76.71-269.2-343.66-443.3-620.9-404.9l-457.01 63.2c-21.75 3-33.63 16.7-38.78 24.6-5.15 7.8-12.88 24.2-6.87 45.3 4.38 15.4 6.91 31.3 7.51 47.2l60.19 1578.8c2.15 56.3-19.61 111-59.92 150.5-556.7 545.2-850.95 1199.4-850.95 1891.9 0 1692.8 1792.2 3070 3995 3070 598.4 0 1173.9-99.5 1710.7-295.8 41.8-15.2 87.5-16.1 129.9-2.5 425.4 136.8 929.7 178.5 1318.3 186.7-161.5-88.8-338.1-193.1-527-311.4-57.5-35.9-92.8-98.5-93.9-166.3-1.1-67.7 32.2-131.4 88.4-169.2 594.7-399.7 1018.8-918 1226.5-1498.8 28.5-79.6 103.9-132.7 188.4-132.7h487.4c141.3 0 256.3-115 256.3-256.3v-9.8c0-555.1-349.5-1057.8-869.7-1250.9-51.7-19.2-93.1-58.8-114.6-109.6-275.5-651.5-837.3-1221.6-1581.8-1605.3-69-35.6-111.2-107.9-108.3-185.4l33.7-883.9c0.6-15.9 3.1-31.8 7.5-47.2 6-21.1-1.7-37.5-6.8-45.3-5.2-7.9-17.1-21.6-38.8-24.6l-457-63.2c-277.3-38.4-544.2 135.7-620.9 404.9-3.3 11.5-7.6 22.7-12.9 33.5l-113.2 229.8c-38 77.2-121.1 121.4-206.3 109.9-141.1-19.1-285.4-32.5-428.9-39.8-110.3-5.7-195.1-99.6-189.5-209.9 5.6-110.4 99.5-195.4 209.9-189.6 106.2 5.4 212.9 13.9 318.6 25.4l43-87.2c66.2-216 206.1-402.1 395.6-525.7 157.6-102.7 340.9-156.7 527.1-156.7 44.1 0 88.2 3 132.3 9.1l457 63.2c130.7 18.1 247 91.9 319 202.4 67.1 102.8 89.6 227.8 63.2 346.9l-28.1 738c743.3 409.8 1313.1 996.2 1620 1667.5 293.8 126 545.7 329.7 732.1 593 207.9 293.7 317.8 639.7 317.8 1000.7v9.8c0 361.9-294.4 656.3-656.3 656.3"/><path d="m13105 9807.7c0 165.7-134.3 300-300 300s-300-134.3-300-300 134.3-300 300-300 300 134.3 300 300"/><path d="m10738 11224c13.9 109.5-63.6 209.6-173.2 223.5-14.8 1.9-367 45.2-825.99-20.4-616.47-88.1-1136-333-1502.3-708.3-77.15-79-75.63-205.6 3.41-282.8 38.9-38 89.31-56.9 139.7-56.9 51.99 0 103.94 20.2 143.13 60.3 306.35 313.9 730.91 512.4 1261.9 590.2 407.29 59.7 726.29 21.6 730.09 21.1 109.5-13.8 209.4 63.8 223.3 173.3"/><path d="m8380 14919c590 0 1070-480 1070-1070s-480-1070-1070-1070-1070 480-1070 1070 480 1070 1070 1070zm0-2540c810.56 0 1470 659.5 1470 1470 0 810.6-659.44 1470-1470 1470s-1470-659.4-1470-1470c0-810.5 659.44-1470 1470-1470"/><path d="m7939.2 13590c71.1-211.8 241.74-356.6 520.35-356.6 228.42 0 380.52 94.4 461.25 238.2 37.09 66-11.51 147.7-87.26 147.7h-51.63c-37.69 0-71.7-21.5-88.93-55-31.99-62.2-93.56-128-222.32-128-125.98 0-204.47 63.3-249.9 153.7h233.39c54.97 0 99.53 44.5 99.53 99.5s-44.56 99.5-99.53 99.5h-283.81c-1.62 20.9-2.43 41.9-2.43 62.8 0 19.3 0.68 38.3 2 57.1h284.24c54.97 0 99.53 44.5 99.53 99.5s-44.56 99.5-99.53 99.5h-235.32c45.72 92.5 124.42 153.7 244.89 153.7 130.14 0 197.27-58.9 231.7-129.7 16.57-34 52.23-54.5 90.07-54.5h54.25c73.45 0 122.97 77.5 89.6 142.9-70.33 138-217.24 244.2-457.35 244.2-276.44 0-449.8-150.7-526.05-356.6h-266.45c-54.97 0-99.53-44.5-99.53-99.5s44.56-99.5 99.53-99.5h223.83c-1.72-22-2.67-44.1-2.67-66.5 0-18 0.62-35.8 1.63-53.4h-222.79c-54.97 0-99.53-44.5-99.53-99.5s44.56-99.5 99.53-99.5h259.71"/></g></g></svg>
