<?xml version="1.0" encoding="UTF-8" standalone="no"?>
<svg
   xmlns:dc="http://purl.org/dc/elements/1.1/"
   xmlns:cc="http://creativecommons.org/ns#"
   xmlns:rdf="http://www.w3.org/1999/02/22-rdf-syntax-ns#"
   xmlns:svg="http://www.w3.org/2000/svg"
   xmlns="http://www.w3.org/2000/svg"
   xmlns:sodipodi="http://sodipodi.sourceforge.net/DTD/sodipodi-0.dtd"
   xmlns:inkscape="http://www.inkscape.org/namespaces/inkscape"
   width="1999"
   zoomAndPan="magnify"
   viewBox="0 0 1500 524.999967"
   height="699"
   preserveAspectRatio="xMidYMid meet"
   version="1.0"
   id="svg126"
   sodipodi:docname="1.svg"
   inkscape:version="1.0.2 (e86c8708, 2021-01-15)">
  <metadata
     id="metadata130">
    <rdf:RDF>
      <cc:Work
         rdf:about="">
        <dc:format>image/svg+xml</dc:format>
        <dc:type
           rdf:resource="http://purl.org/dc/dcmitype/StillImage" />
      </cc:Work>
    </rdf:RDF>
  </metadata>
  <sodipodi:namedview
     pagecolor="#ffffff"
     bordercolor="#666666"
     borderopacity="1"
     objecttolerance="10"
     gridtolerance="10"
     guidetolerance="10"
     inkscape:pageopacity="0"
     inkscape:pageshadow="2"
     inkscape:window-width="1406"
     inkscape:window-height="748"
     id="namedview128"
     showgrid="false"
     inkscape:zoom="0.15127646"
     inkscape:cx="1243.3201"
     inkscape:cy="37.906444"
     inkscape:window-x="0"
     inkscape:window-y="23"
     inkscape:window-maximized="0"
     inkscape:current-layer="svg126" />
  <defs
     id="defs18">
    <g
       id="g10" />
    <clipPath
       id="38abd7b581">
      <path
         d="M 59.550781 26.523438 L 394.050781 26.523438 L 394.050781 441.890625 L 59.550781 441.890625 Z M 59.550781 26.523438 "
         clip-rule="nonzero"
         id="path12" />
    </clipPath>
    <clipPath
       id="b5dfa6d9da">
      <path
         d="M 319.078125 36.464844 C 288.019531 16.632812 263.039062 27.597656 251.078125 62.714844 L 226.273438 143 C 223.875 150.664062 227.429688 156.878906 234.222656 156.878906 L 302.652344 156.878906 C 324.015625 156.878906 340.398438 182.789062 323.390625 203.839844 L 209.832031 339.789062 C 204.582031 346.289062 196.625 343.714844 198.953125 336.273438 L 225.136719 233.179688 C 227.539062 225.511719 223.976562 219.296875 217.1875 219.296875 L 169.667969 219.296875 C 142.707031 219.296875 135.738281 199.550781 141.335938 179.089844 L 172.625 61.460938 C 178.03125 41.140625 157.960938 22.039062 139.992188 32.96875 C 91.757812 62.296875 59.542969 115.332031 59.542969 175.894531 C 59.542969 302.875 163.726562 326.625 143.621094 441.730469 C 233.183594 405.191406 394.03125 306.527344 394.03125 175.894531 C 394.03125 117.664062 364.75 65.625 319.078125 36.464844 Z M 319.078125 36.464844 "
         clip-rule="nonzero"
         id="path15" />
    </clipPath>
  </defs>
  <g
     clip-path="url(#38abd7b581)"
     id="g28">
    <g
       clip-path="url(#b5dfa6d9da)"
       id="g26">
      <path
         fill="#09367a"
         d="M 319.078125 36.464844 C 288.019531 16.632812 263.039062 27.597656 251.078125 62.714844 L 226.273438 143 C 223.875 150.664062 227.429688 156.878906 234.222656 156.878906 L 302.652344 156.878906 C 324.015625 156.878906 340.398438 182.789062 323.390625 203.839844 L 209.832031 339.789062 C 204.582031 346.289062 196.625 343.714844 198.953125 336.273438 L 225.136719 233.179688 C 227.539062 225.511719 223.976562 219.296875 217.1875 219.296875 L 169.667969 219.296875 C 142.707031 219.296875 135.738281 199.550781 141.335938 179.089844 L 172.625 61.460938 C 178.03125 41.140625 157.960938 22.039062 139.992188 32.96875 C 91.757812 62.296875 59.542969 115.332031 59.542969 175.894531 C 59.542969 302.875 163.726562 326.625 143.621094 441.730469 C 233.183594 405.191406 394.03125 306.527344 394.03125 175.894531 C 394.03125 117.664062 364.75 65.625 319.078125 36.464844 "
         fill-opacity="1"
         fill-rule="nonzero"
         id="path24" />
    </g>
  </g>
  <g
     fill="#09367a"
     fill-opacity="1"
     id="g36">
    <g
       transform="translate(435.472538, 162.115062)"
       id="g34">
      <g
         id="g32">
        <path
           d="M 48.078125 -136.125 L 48.078125 -4.5 C 48.078125 -1.625 48.609375 0.1875 49.875 1.078125 C 50.953125 1.796875 52.765625 2.34375 55.28125 2.34375 L 123.15625 2.34375 L 123.15625 16.921875 C 123.15625 20.890625 122.265625 23.765625 120.828125 25.390625 C 119.015625 26.828125 116.140625 27.546875 112 27.546875 L 33.484375 27.546875 C 24.84375 27.546875 19.09375 25.921875 15.84375 22.6875 C 12.421875 19.453125 10.796875 14.046875 10.796875 6.484375 L 10.796875 -136.125 Z M 48.078125 -136.125 "
           id="path30" />
      </g>
    </g>
  </g>
  <g
     fill="#09367a"
     fill-opacity="1"
     id="g44">
    <g
       transform="translate(566.912451, 162.115062)"
       id="g42">
      <g
         id="g40">
        <path
           d="M 11.34375 27.375 L 11.34375 -136.3125 L 49.15625 -136.3125 L 49.15625 16.75 C 49.15625 20.703125 48.25 23.59375 46.8125 25.203125 C 45.015625 26.65625 42.140625 27.375 38 27.375 Z M 11.34375 27.375 "
           id="path38" />
      </g>
    </g>
  </g>
  <g
     fill="#09367a"
     fill-opacity="1"
     id="g52">
    <g
       transform="translate(625.790327, 162.115062)"
       id="g50">
      <g
         id="g48">
        <path
           d="M 11.34375 27.375 L 11.34375 -136.3125 L 49.15625 -136.3125 L 49.15625 16.75 C 49.15625 20.703125 48.25 23.59375 46.8125 25.203125 C 45.015625 26.65625 42.140625 27.375 38 27.375 Z M 11.34375 27.375 "
           id="path46" />
      </g>
    </g>
  </g>
  <g
     fill="#09367a"
     fill-opacity="1"
     id="g60">
    <g
       transform="translate(684.668202, 162.115062)"
       id="g58">
      <g
         id="g56">
        <path
           d="M 117.046875 -2.515625 L 49.875 -2.515625 L 38.71875 27.375 L 1.984375 27.375 L 64.640625 -136.3125 L 102.28125 -136.3125 L 164.9375 27.375 L 128.390625 27.375 Z M 59.0625 -27.1875 L 107.671875 -27.1875 L 83.1875 -91.46875 Z M 59.0625 -27.1875 "
           id="path54" />
      </g>
    </g>
  </g>
  <g
     fill="#f89d1b"
     fill-opacity="1"
     id="g68">
    <g
       transform="translate(435.472538, 409.068477)"
       id="g66">
      <g
         id="g64">
        <path
           d="M 123.15625 16.75 C 123.15625 20.703125 122.265625 23.59375 120.828125 25.203125 C 119.015625 26.65625 116.140625 27.375 112 27.375 L 33.484375 27.375 C 24.84375 27.375 19.09375 25.75 15.84375 22.515625 C 12.421875 19.265625 10.796875 13.859375 10.796875 6.296875 L 10.796875 -136.3125 L 123.15625 -136.3125 L 123.15625 -121.71875 C 123.15625 -117.578125 122.265625 -114.875 120.828125 -113.4375 C 119.015625 -111.8125 116.140625 -111.09375 112 -111.09375 L 48.609375 -111.09375 L 48.609375 -66.984375 L 121.359375 -66.984375 L 121.359375 -52.390625 C 121.359375 -48.25 120.46875 -45.5625 119.015625 -44.109375 C 117.21875 -42.5 114.34375 -41.78125 110.203125 -41.78125 L 48.609375 -41.78125 L 48.609375 -4.6875 C 48.609375 -1.796875 49.15625 0 50.421875 0.90625 C 51.5 1.625 53.296875 2.15625 55.8125 2.15625 L 123.15625 2.15625 Z M 123.15625 16.75 "
           id="path62" />
      </g>
    </g>
  </g>
  <g
     fill="#f89d1b"
     fill-opacity="1"
     id="g76">
    <g
       transform="translate(566.912451, 409.068477)"
       id="g74">
      <g
         id="g72">
        <path
           d="M 103.890625 27.375 L 47.53125 -85.53125 L 47.53125 16.75 C 47.53125 20.703125 46.8125 23.59375 45.375 25.203125 C 43.75 26.65625 41.046875 27.375 37.09375 27.375 L 10.796875 27.375 L 10.796875 -135.953125 L 53.484375 -135.953125 L 108.75 -25.203125 L 108.75 -135.953125 L 145.3125 -135.953125 L 145.3125 16.75 C 145.3125 20.703125 144.59375 23.59375 143.15625 25.203125 C 141.53125 26.65625 138.828125 27.375 134.859375 27.375 Z M 103.890625 27.375 "
           id="path70" />
      </g>
    </g>
  </g>
  <g
     fill="#f89d1b"
     fill-opacity="1"
     id="g84">
    <g
       transform="translate(725.360567, 409.068477)"
       id="g82">
      <g
         id="g80">
        <path
           d="M 123.15625 16.75 C 123.15625 20.703125 122.265625 23.59375 120.828125 25.203125 C 119.015625 26.65625 116.140625 27.375 112 27.375 L 33.484375 27.375 C 24.84375 27.375 19.09375 25.75 15.84375 22.515625 C 12.421875 19.265625 10.796875 13.859375 10.796875 6.296875 L 10.796875 -136.3125 L 123.15625 -136.3125 L 123.15625 -121.71875 C 123.15625 -117.578125 122.265625 -114.875 120.828125 -113.4375 C 119.015625 -111.8125 116.140625 -111.09375 112 -111.09375 L 48.609375 -111.09375 L 48.609375 -66.984375 L 121.359375 -66.984375 L 121.359375 -52.390625 C 121.359375 -48.25 120.46875 -45.5625 119.015625 -44.109375 C 117.21875 -42.5 114.34375 -41.78125 110.203125 -41.78125 L 48.609375 -41.78125 L 48.609375 -4.6875 C 48.609375 -1.796875 49.15625 0 50.421875 0.90625 C 51.5 1.625 53.296875 2.15625 55.8125 2.15625 L 123.15625 2.15625 Z M 123.15625 16.75 "
           id="path78" />
      </g>
    </g>
  </g>
  <g
     fill="#f89d1b"
     fill-opacity="1"
     id="g92">
    <g
       transform="translate(856.800481, 409.068477)"
       id="g90">
      <g
         id="g88">
        <path
           d="M 66.265625 -136.125 C 77.96875 -136.125 87.875 -134.6875 95.96875 -131.8125 C 103.890625 -128.75 110.5625 -124.78125 115.59375 -119.734375 C 120.46875 -114.703125 124.0625 -108.75 126.21875 -101.921875 C 128.390625 -95.078125 129.46875 -87.6875 129.46875 -80.125 C 129.46875 -70.40625 127.671875 -61.578125 124.25 -53.296875 C 120.640625 -45.015625 115.0625 -38.171875 107.140625 -32.765625 L 135.40625 27.375 L 97.234375 27.375 L 73.828125 -22.515625 C 72.5625 -22.328125 71.3125 -22.328125 70.21875 -22.328125 L 48.984375 -22.328125 L 48.984375 16.75 C 48.984375 20.703125 48.078125 23.59375 46.640625 25.203125 C 44.828125 26.65625 41.953125 27.375 37.8125 27.375 L 11.15625 27.375 L 11.15625 -136.125 Z M 63.203125 -47.71875 C 68.25 -47.71875 72.75 -48.609375 76.53125 -50.59375 C 80.125 -52.390625 83.1875 -54.734375 85.703125 -57.796875 C 87.875 -60.6875 89.671875 -64.28125 90.75 -68.25 C 91.828125 -72.03125 92.375 -75.984375 92.375 -79.953125 C 92.375 -83.734375 91.828125 -87.515625 90.75 -91.296875 C 89.671875 -94.890625 87.875 -98.3125 85.53125 -101.1875 C 83.015625 -104.078125 79.953125 -106.421875 76.34375 -108.21875 C 72.5625 -110.015625 68.0625 -110.921875 63.015625 -110.921875 L 48.984375 -110.921875 L 48.984375 -47.71875 Z M 63.203125 -47.71875 "
           id="path86" />
      </g>
    </g>
  </g>
  <g
     fill="#f89d1b"
     fill-opacity="1"
     id="g100">
    <g
       transform="translate(996.342854, 409.068477)"
       id="g98">
      <g
         id="g96">
        <path
           d="M 9 -54.375 C 9 -70.578125 10.4375 -84.09375 13.328125 -94.890625 C 16.03125 -105.515625 20.34375 -113.984375 26.296875 -120.46875 C 32.046875 -126.765625 39.609375 -131.265625 48.796875 -133.96875 C 57.796875 -136.484375 68.421875 -137.75 80.84375 -137.75 C 93.09375 -137.75 103.359375 -136.125 111.640625 -133.25 C 119.734375 -130.1875 126.40625 -126.21875 131.625 -121.546875 C 136.671875 -116.5 140.453125 -110.921875 142.96875 -104.609375 C 145.3125 -98.140625 146.9375 -91.65625 147.65625 -85.171875 L 110.5625 -85.171875 C 109.84375 -90.21875 108.578125 -94.359375 106.78125 -97.953125 C 104.796875 -101.1875 102.453125 -104.078125 99.9375 -106.234375 C 97.046875 -108.21875 94 -109.65625 90.75 -110.734375 C 87.328125 -111.640625 83.90625 -112.171875 80.3125 -112.171875 C 75.625 -112.171875 71.125 -111.453125 67.15625 -110.375 C 62.84375 -108.9375 59.234375 -106.234375 56.359375 -102.28125 C 53.125 -98.140625 50.78125 -92.375 49.15625 -84.8125 C 47.359375 -77.0625 46.453125 -66.984375 46.453125 -54.375 C 46.453125 -41.78125 47.359375 -31.515625 49.15625 -23.953125 C 50.78125 -16.03125 53.125 -10.078125 56.359375 -5.9375 C 59.234375 -1.625 62.84375 1.265625 67.15625 2.703125 C 71.125 4.140625 75.625 4.859375 80.3125 4.859375 C 83.90625 4.859375 87.515625 4.328125 91.296875 3.421875 C 94.890625 2.34375 98.140625 0.359375 101.015625 -2.515625 C 103.890625 -5.40625 106.234375 -9.546875 108.21875 -15.125 C 110.015625 -20.53125 111.09375 -27.90625 111.453125 -37.265625 L 79.234375 -37.265625 L 79.234375 -62.484375 L 148.734375 -62.484375 L 148.734375 -36.375 C 148.734375 -25.921875 147.46875 -16.75 145.3125 -8.46875 C 142.796875 -0.1875 139.015625 6.84375 133.78125 12.609375 C 128.390625 18.359375 121.359375 22.6875 112.71875 25.921875 C 104.078125 28.984375 93.453125 30.609375 80.84375 30.609375 C 68.25 30.609375 57.4375 29.171875 48.4375 26.65625 C 39.25 23.953125 31.875 19.453125 26.109375 12.96875 C 20.171875 6.484375 15.84375 -2.15625 13.140625 -13.140625 C 10.265625 -23.953125 9 -37.8125 9 -54.375 Z M 9 -54.375 "
           id="path94" />
      </g>
    </g>
  </g>
  <g
     fill="#f89d1b"
     fill-opacity="1"
     id="g108">
    <g
       transform="translate(1154.790995, 409.068477)"
       id="g106">
      <g
         id="g104">
        <path
           d="M 11.34375 27.375 L 11.34375 -136.3125 L 49.15625 -136.3125 L 49.15625 16.75 C 49.15625 20.703125 48.25 23.59375 46.8125 25.203125 C 45.015625 26.65625 42.140625 27.375 38 27.375 Z M 11.34375 27.375 "
           id="path102" />
      </g>
    </g>
  </g>
  <g
     fill="#f89d1b"
     fill-opacity="1"
     id="g116">
    <g
       transform="translate(1213.668845, 409.068477)"
       id="g114">
      <g
         id="g112">
        <path
           d="M 123.15625 16.75 C 123.15625 20.703125 122.265625 23.59375 120.828125 25.203125 C 119.015625 26.65625 116.140625 27.375 112 27.375 L 33.484375 27.375 C 24.84375 27.375 19.09375 25.75 15.84375 22.515625 C 12.421875 19.265625 10.796875 13.859375 10.796875 6.296875 L 10.796875 -136.3125 L 123.15625 -136.3125 L 123.15625 -121.71875 C 123.15625 -117.578125 122.265625 -114.875 120.828125 -113.4375 C 119.015625 -111.8125 116.140625 -111.09375 112 -111.09375 L 48.609375 -111.09375 L 48.609375 -66.984375 L 121.359375 -66.984375 L 121.359375 -52.390625 C 121.359375 -48.25 120.46875 -45.5625 119.015625 -44.109375 C 117.21875 -42.5 114.34375 -41.78125 110.203125 -41.78125 L 48.609375 -41.78125 L 48.609375 -4.6875 C 48.609375 -1.796875 49.15625 0 50.421875 0.90625 C 51.5 1.625 53.296875 2.15625 55.8125 2.15625 L 123.15625 2.15625 Z M 123.15625 16.75 "
           id="path110" />
      </g>
    </g>
  </g>
  <g
     fill="#f89d1b"
     fill-opacity="1"
     id="g124">
    <g
       transform="translate(1345.108811, 409.068477)"
       id="g122">
      <g
         id="g120">
        <path
           d="M 43.578125 -17.109375 C 43.578125 -10.265625 45.921875 -4.859375 50.78125 -1.078125 C 55.453125 2.875 62.125 4.859375 70.9375 4.859375 C 79.046875 4.859375 85.53125 3.0625 90.390625 -0.359375 C 95.078125 -3.78125 97.40625 -8.828125 97.40625 -15.671875 C 97.234375 -19.984375 95.96875 -23.59375 93.625 -26.65625 C 91.109375 -29.53125 88.046875 -31.875 84.453125 -34.03125 C 80.84375 -36.015625 76.890625 -37.640625 72.75 -39.078125 C 68.421875 -40.328125 64.640625 -41.59375 61.40625 -43.03125 C 55.640625 -45.203125 49.515625 -47.53125 43.21875 -50.234375 C 36.734375 -52.765625 30.96875 -56.171875 25.75 -60.140625 C 20.34375 -63.921875 15.84375 -68.609375 12.421875 -74.1875 C 8.828125 -79.59375 7.015625 -86.25 7.015625 -94.171875 C 7.015625 -107.5 12.0625 -118.125 22.328125 -126.046875 C 32.40625 -133.96875 47.53125 -137.921875 67.703125 -137.921875 C 88.765625 -137.921875 104.25 -134.328125 114.34375 -127.125 C 124.25 -119.734375 129.28125 -109.484375 129.28125 -96.328125 L 92.015625 -96.15625 C 92.015625 -101.1875 89.84375 -105.15625 85.53125 -108.21875 C 81.203125 -111.09375 75.453125 -112.546875 68.25 -112.546875 C 61.578125 -112.546875 56 -110.921875 51.671875 -108.03125 C 47 -104.796875 44.828125 -100.296875 44.828125 -94.171875 C 44.828125 -88.046875 47.890625 -82.828125 54.015625 -78.5 C 59.953125 -74 68.96875 -69.859375 81.03125 -66.078125 C 89.3125 -63.203125 96.6875 -60.328125 103.53125 -57.265625 C 110.015625 -54.015625 115.78125 -50.421875 120.46875 -46.640625 C 124.96875 -42.671875 128.5625 -38.171875 131.078125 -33.484375 C 133.421875 -28.625 134.6875 -23.40625 134.6875 -17.640625 C 134.6875 -2.34375 129.28125 9.359375 118.84375 17.828125 C 108.21875 26.109375 92.1875 30.4375 70.578125 30.4375 C 58.34375 30.4375 48.25 29.171875 40.15625 26.65625 C 31.875 23.953125 25.203125 20.53125 20.34375 16.203125 C 15.3125 11.890625 11.890625 6.84375 9.90625 1.078125 C 7.75 -4.6875 6.65625 -10.984375 6.65625 -17.46875 Z M 43.578125 -17.109375 "
           id="path118" />
      </g>
    </g>
  </g>
</svg>
