<svg xmlns="http://www.w3.org/2000/svg" xmlns:xlink="http://www.w3.org/1999/xlink" width="1000" zoomAndPan="magnify" viewBox="0 0 750 449.999984" height="600" preserveAspectRatio="xMidYMid meet" version="1.0"><defs><g/><clipPath id="7eef108e94"><path d="M 42.851562 12.839844 L 422 12.839844 L 422 334.589844 L 42.851562 334.589844 Z M 42.851562 12.839844 " clip-rule="nonzero"/></clipPath><clipPath id="21dc0e23f7"><path d="M 169 12.839844 L 549 12.839844 L 549 334.589844 L 169 334.589844 Z M 169 12.839844 " clip-rule="nonzero"/></clipPath><clipPath id="429bfd6ae0"><path d="M 295 12.839844 L 680.351562 12.839844 L 680.351562 334.589844 L 295 334.589844 Z M 295 12.839844 " clip-rule="nonzero"/></clipPath></defs><path fill="#09367a" d="M 611.269531 231.578125 L 569.789062 231.578125 L 569.789062 190.101562 L 611.269531 190.101562 L 611.269531 231.578125 " fill-opacity="1" fill-rule="nonzero"/><path fill="#09367a" d="M 665.351562 231.578125 L 623.875 231.578125 L 623.875 190.101562 L 665.351562 190.101562 L 665.351562 231.578125 " fill-opacity="1" fill-rule="nonzero"/><path fill="#09367a" d="M 611.269531 285.664062 L 569.789062 285.664062 L 569.789062 244.183594 L 611.269531 244.183594 L 611.269531 285.664062 " fill-opacity="1" fill-rule="nonzero"/><path fill="#09367a" d="M 665.351562 285.667969 L 623.875 285.667969 L 623.875 244.1875 L 665.351562 244.1875 L 665.351562 285.667969 " fill-opacity="1" fill-rule="nonzero"/><g clip-path="url(#7eef108e94)"><path fill="#09367a" d="M 391.90625 99.398438 L 421.65625 69.652344 L 364.867188 12.863281 L 42.847656 334.882812 L 102.34375 334.882812 L 364.867188 72.359375 L 391.90625 99.398438 " fill-opacity="1" fill-rule="nonzero"/></g><g clip-path="url(#21dc0e23f7)"><path fill="#09367a" d="M 518.257812 99.398438 L 548.007812 69.652344 L 491.21875 12.863281 L 169.203125 334.882812 L 228.695312 334.882812 L 491.21875 72.359375 L 518.257812 99.398438 " fill-opacity="1" fill-rule="nonzero"/></g><g clip-path="url(#429bfd6ae0)"><path fill="#09367a" d="M 650.878906 105.660156 L 680.625 75.914062 L 617.574219 12.863281 L 295.554688 334.882812 L 355.050781 334.882812 L 617.574219 72.359375 L 650.878906 105.660156 " fill-opacity="1" fill-rule="nonzero"/></g><g fill="#f89d1b" fill-opacity="1"><g transform="translate(11.581287, 438.586401)"><g><path d="M 9.3125 0 L 26.8125 0 L 26.8125 -47.53125 L 61.046875 0 L 76 0 L 76 -77.5625 L 58.5 -77.5625 L 58.5 -30.359375 L 24.265625 -77.5625 L 9.3125 -77.5625 Z M 9.3125 0 "/></g></g></g><g fill="#f89d1b" fill-opacity="1"><g transform="translate(96.888814, 438.586401)"><g><path d="M 9.3125 0 L 61.5 0 L 61.5 -14.953125 L 26.8125 -14.953125 L 26.8125 -31.90625 L 57.28125 -31.90625 L 57.28125 -46.640625 L 26.8125 -46.640625 L 26.8125 -62.71875 L 60.28125 -62.71875 L 60.28125 -77.5625 L 9.3125 -77.5625 Z M 9.3125 0 "/></g></g></g><g fill="#f89d1b" fill-opacity="1"><g transform="translate(164.026946, 438.586401)"><g><path d="M 36.34375 1.546875 C 54.734375 1.546875 66.03125 -7.203125 66.03125 -21.828125 C 66.03125 -34.125 57.953125 -41.4375 38.671875 -45.984375 C 26.8125 -48.75 22.71875 -51.734375 22.71875 -56.5 C 22.71875 -61.609375 27.25 -64.703125 34.671875 -64.703125 C 42.765625 -64.703125 47.640625 -60.5 47.640625 -53.515625 L 64.59375 -53.515625 C 64.59375 -69.140625 52.84375 -79.109375 34.453125 -79.109375 C 16.625 -79.109375 5.546875 -70.359375 5.546875 -56.171875 C 5.546875 -43.546875 14.078125 -36.015625 32.234375 -32.125 C 43.203125 -29.796875 48.203125 -26.59375 48.203125 -21.15625 C 48.203125 -15.953125 43.546875 -12.96875 36.234375 -12.96875 C 27.703125 -12.96875 22.15625 -17.28125 22.15625 -24.703125 L 4.875 -24.703125 C 4.875 -8.640625 16.84375 1.546875 36.34375 1.546875 Z M 36.34375 1.546875 "/></g></g></g><g fill="#f89d1b" fill-opacity="1"><g transform="translate(235.04268, 438.586401)"><g><path d="M 27.921875 0 L 45.53125 0 L 45.53125 -61.046875 L 70.140625 -61.046875 L 70.140625 -77.5625 L 3.328125 -77.5625 L 3.328125 -61.046875 L 27.921875 -61.046875 Z M 27.921875 0 "/></g></g></g><g fill="#16539b" fill-opacity="1"><g transform="translate(308.499236, 438.586401)"><g/></g></g><g fill="#09367a" fill-opacity="1"><g transform="translate(334.538297, 438.586401)"><g><path d="M 9.3125 0 L 26.921875 0 L 26.921875 -24.15625 L 38.5625 -24.15625 L 52.40625 0 L 72.796875 0 L 56.734375 -26.921875 C 66.03125 -31.015625 71.46875 -39.4375 71.46875 -50.859375 C 71.46875 -67.359375 60.15625 -77.5625 42.4375 -77.5625 L 9.3125 -77.5625 Z M 26.703125 -39 L 26.703125 -62.484375 L 40.109375 -62.484375 C 48.75 -62.484375 53.625 -58.28125 53.625 -50.75 C 53.625 -43.203125 48.75 -39 40.109375 -39 Z M 26.703125 -39 "/></g></g></g><g fill="#09367a" fill-opacity="1"><g transform="translate(412.533747, 438.586401)"><g><path d="M 9.3125 0 L 61.5 0 L 61.5 -14.953125 L 26.8125 -14.953125 L 26.8125 -31.90625 L 57.28125 -31.90625 L 57.28125 -46.640625 L 26.8125 -46.640625 L 26.8125 -62.71875 L 60.28125 -62.71875 L 60.28125 -77.5625 L 9.3125 -77.5625 Z M 9.3125 0 "/></g></g></g><g fill="#09367a" fill-opacity="1"><g transform="translate(479.67188, 438.586401)"><g><path d="M 9.3125 0 L 26.8125 0 L 26.8125 -47.53125 L 61.046875 0 L 76 0 L 76 -77.5625 L 58.5 -77.5625 L 58.5 -30.359375 L 24.265625 -77.5625 L 9.3125 -77.5625 Z M 9.3125 0 "/></g></g></g><g fill="#09367a" fill-opacity="1"><g transform="translate(564.979394, 438.586401)"><g><path d="M 46.09375 1.546875 C 70.359375 1.546875 87.53125 -15.0625 87.53125 -38.78125 C 87.53125 -62.484375 70.359375 -79.109375 46.09375 -79.109375 C 21.828125 -79.109375 4.765625 -62.484375 4.765625 -38.78125 C 4.765625 -15.0625 21.828125 1.546875 46.09375 1.546875 Z M 22.71875 -38.78125 C 22.71875 -52.734375 32.359375 -62.375 46.09375 -62.375 C 59.9375 -62.375 69.46875 -52.734375 69.46875 -38.78125 C 69.46875 -24.8125 59.9375 -15.171875 46.09375 -15.171875 C 32.359375 -15.171875 22.71875 -24.8125 22.71875 -38.78125 Z M 22.71875 -38.78125 "/></g></g></g><g fill="#09367a" fill-opacity="1"><g transform="translate(657.266626, 438.586401)"><g><path d="M 30.796875 0 L 48.078125 0 L 77.890625 -77.5625 L 59.0625 -77.5625 L 39.546875 -25.375 L 30.25 -49.96875 L 19.9375 -77.5625 L 1 -77.5625 Z M 30.796875 0 "/></g></g></g></svg>